<svg width="179" height="36" viewBox="0 0 179 36" fill="none" xmlns="http://www.w3.org/2000/svg">
<path d="M13 13.64V17.36H3.32V13.64H13ZM9.44 17.36L10.2 14.52C12.2533 14.52 13.96 14.8 15.32 15.36C16.7067 15.92 17.7467 16.6933 18.44 17.68C19.1333 18.64 19.48 19.7733 19.48 21.08C19.48 23.6133 18.5467 25.4933 16.68 26.72C14.8133 27.92 12.1733 28.52 8.76 28.52C8.09333 28.52 7.36 28.4933 6.56 28.44C5.78667 28.4133 5 28.3333 4.2 28.2C3.42667 28.0667 2.70667 27.9067 2.04 27.72C0.733334 27.2667 0.0800003 26.48 0.0800003 25.36V5.72C0.0800003 5.24 0.213334 4.86666 0.48 4.6C0.773334 4.30667 1.14667 4.09333 1.6 3.96C2.50667 3.66667 3.56 3.46666 4.76 3.36C5.96 3.22666 7.2 3.16 8.48 3.16C11.68 3.16 14.16 3.72 15.92 4.84C17.68 5.96 18.56 7.66667 18.56 9.96C18.56 11.1867 18.2133 12.2667 17.52 13.2C16.8533 14.1067 15.84 14.8133 14.48 15.32C13.1467 15.8267 11.4667 16.08 9.44 16.08L9.12 13.64C10.5867 13.64 11.68 13.3467 12.4 12.76C13.12 12.1733 13.48 11.3467 13.48 10.28C13.48 9.24 13.0667 8.45333 12.24 7.92C11.4133 7.36 10.1733 7.08 8.52 7.08C7.85333 7.08 7.21333 7.10667 6.6 7.16C5.98667 7.21333 5.46667 7.28 5.04 7.36V24.2C5.54667 24.3333 6.16 24.4267 6.88 24.48C7.6 24.5333 8.30667 24.56 9 24.56C10.6533 24.56 11.9467 24.2667 12.88 23.68C13.84 23.0667 14.32 22.1333 14.32 20.88C14.32 19.7333 13.9067 18.8667 13.08 18.28C12.2533 17.6667 11.04 17.36 9.44 17.36ZM25.9778 21.04L25.7778 17.6L36.4978 16C36.4178 14.9867 36.0311 14.1067 35.3378 13.36C34.6445 12.6133 33.6311 12.24 32.2978 12.24C30.9378 12.24 29.8045 12.72 28.8978 13.68C27.9911 14.6133 27.5245 15.96 27.4978 17.72L27.6178 19.8C27.8578 21.5067 28.5111 22.76 29.5778 23.56C30.6711 24.36 32.0445 24.76 33.6978 24.76C34.8178 24.76 35.8578 24.6 36.8178 24.28C37.7778 23.9333 38.5378 23.56 39.0978 23.16C39.4711 23.4 39.7645 23.7067 39.9778 24.08C40.2178 24.4267 40.3378 24.8133 40.3378 25.24C40.3378 25.9333 40.0311 26.5333 39.4178 27.04C38.8045 27.52 37.9778 27.8933 36.9378 28.16C35.8978 28.4267 34.7111 28.56 33.3778 28.56C31.3245 28.56 29.4978 28.1867 27.8978 27.44C26.3245 26.6667 25.0845 25.52 24.1778 24C23.2978 22.48 22.8578 20.5867 22.8578 18.32C22.8578 16.6933 23.1111 15.2667 23.6178 14.04C24.1245 12.8133 24.8045 11.8 25.6578 11C26.5378 10.1733 27.5511 9.56 28.6978 9.16C29.8445 8.73333 31.0445 8.52 32.2978 8.52C34.0578 8.52 35.5911 8.88 36.8978 9.6C38.2311 10.2933 39.2711 11.2667 40.0178 12.52C40.7911 13.7733 41.1778 15.2133 41.1778 16.84C41.1778 17.5867 40.9778 18.1467 40.5778 18.52C40.2045 18.8667 39.6711 19.08 38.9778 19.16L25.9778 21.04ZM47.3059 21.04L47.1059 17.6L57.8259 16C57.7459 14.9867 57.3593 14.1067 56.6659 13.36C55.9726 12.6133 54.9593 12.24 53.6259 12.24C52.2659 12.24 51.1326 12.72 50.2259 13.68C49.3193 14.6133 48.8526 15.96 48.8259 17.72L48.9459 19.8C49.1859 21.5067 49.8393 22.76 50.9059 23.56C51.9993 24.36 53.3726 24.76 55.0259 24.76C56.1459 24.76 57.1859 24.6 58.1459 24.28C59.1059 23.9333 59.8659 23.56 60.4259 23.16C60.7993 23.4 61.0926 23.7067 61.3059 24.08C61.5459 24.4267 61.6659 24.8133 61.6659 25.24C61.6659 25.9333 61.3593 26.5333 60.7459 27.04C60.1326 27.52 59.3059 27.8933 58.2659 28.16C57.2259 28.4267 56.0393 28.56 54.7059 28.56C52.6526 28.56 50.8259 28.1867 49.2259 27.44C47.6526 26.6667 46.4126 25.52 45.5059 24C44.6259 22.48 44.1859 20.5867 44.1859 18.32C44.1859 16.6933 44.4393 15.2667 44.9459 14.04C45.4526 12.8133 46.1326 11.8 46.9859 11C47.8659 10.1733 48.8793 9.56 50.0259 9.16C51.1726 8.73333 52.3726 8.52 53.6259 8.52C55.3859 8.52 56.9193 8.88 58.2259 9.6C59.5593 10.2933 60.5993 11.2667 61.3459 12.52C62.1193 13.7733 62.5059 15.2133 62.5059 16.84C62.5059 17.5867 62.3059 18.1467 61.9059 18.52C61.5326 18.8667 60.9993 19.08 60.3059 19.16L47.3059 21.04Z" fill="#FFE20C"/>
<path d="M74.3141 27.32C72.7407 27.32 71.2874 27.0267 69.9541 26.44C68.6207 25.8267 67.5541 24.8267 66.7541 23.44C65.9541 22.0533 65.5541 20.2267 65.5541 17.96C65.5541 15.88 65.9541 14.1467 66.7541 12.76C67.5807 11.3467 68.7274 10.2933 70.1941 9.6C71.6874 8.88 73.3941 8.52 75.3141 8.52C76.6741 8.52 77.9274 8.69333 79.0741 9.04C80.2474 9.38667 81.1807 9.78667 81.8741 10.24C82.3274 10.5333 82.6874 10.8933 82.9541 11.32C83.2474 11.72 83.3941 12.2133 83.3941 12.8V25.28H78.5941V13.24C78.2474 13.0267 77.8207 12.84 77.3141 12.68C76.8074 12.52 76.1807 12.44 75.4341 12.44C73.9674 12.44 72.7674 12.8933 71.8341 13.8C70.9274 14.7067 70.4741 16.0933 70.4741 17.96C70.4741 20.0133 70.9141 21.4533 71.7941 22.28C72.7007 23.1067 73.8074 23.52 75.1141 23.52C76.1274 23.52 76.9407 23.3467 77.5541 23C78.1941 22.6533 78.7274 22.28 79.1541 21.88L79.3141 25.88C78.8341 26.2533 78.1674 26.5867 77.3141 26.88C76.4874 27.1733 75.4874 27.32 74.3141 27.32ZM78.6741 28.12V24.2H83.3941V28.28C83.3941 30.0933 82.9807 31.56 82.1541 32.68C81.3274 33.8267 80.1941 34.6667 78.7541 35.2C77.3407 35.7333 75.7541 36 73.9941 36C72.6074 36 71.3941 35.8667 70.3541 35.6C69.3407 35.3333 68.5941 35.0533 68.1141 34.76C67.2341 34.2267 66.7941 33.4933 66.7941 32.56C66.7941 32.08 66.9007 31.6533 67.1141 31.28C67.3274 30.9067 67.5807 30.6267 67.8741 30.44C68.5407 30.8667 69.3674 31.24 70.3541 31.56C71.3674 31.88 72.4341 32.04 73.5541 32.04C75.1541 32.04 76.4074 31.72 77.3141 31.08C78.2207 30.4667 78.6741 29.48 78.6741 28.12ZM88.2263 3.44C88.2263 2.66667 88.4929 2.01333 89.0263 1.48C89.5863 0.946665 90.2796 0.679999 91.1063 0.679999C91.9596 0.679999 92.6396 0.946665 93.1463 1.48C93.6796 2.01333 93.9463 2.66667 93.9463 3.44C93.9463 4.18667 93.6796 4.84 93.1463 5.4C92.6396 5.93333 91.9596 6.2 91.1063 6.2C90.2796 6.2 89.5863 5.93333 89.0263 5.4C88.4929 4.84 88.2263 4.18667 88.2263 3.44ZM88.6263 17.44H93.5863V27.92C93.3729 28 93.0663 28.0667 92.6663 28.12C92.2663 28.2 91.8263 28.24 91.3463 28.24C90.4396 28.24 89.7596 28.08 89.3063 27.76C88.8529 27.4133 88.6263 26.8133 88.6263 25.96V17.44ZM93.5863 19.96H88.6263V9.24C88.8396 9.16 89.1463 9.09333 89.5463 9.04C89.9729 8.96 90.4263 8.92 90.9062 8.92C91.8396 8.92 92.5196 9.09333 92.9463 9.44C93.3729 9.76 93.5863 10.36 93.5863 11.24V19.96ZM116.376 15.64V19.52H111.456V15.84C111.456 14.6667 111.123 13.8133 110.456 13.28C109.789 12.72 108.896 12.44 107.776 12.44C106.949 12.44 106.203 12.5467 105.536 12.76C104.896 12.9467 104.323 13.1733 103.816 13.44V19.52H98.8959V13.12C98.8959 12.48 99.0293 11.96 99.2959 11.56C99.5626 11.1333 99.9626 10.7467 100.496 10.4C101.296 9.86667 102.323 9.42667 103.576 9.08C104.856 8.70667 106.269 8.52 107.816 8.52C110.509 8.52 112.603 9.12 114.096 10.32C115.616 11.52 116.376 13.2933 116.376 15.64ZM98.8959 17.56H103.816V27.92C103.603 28 103.296 28.0667 102.896 28.12C102.496 28.2 102.056 28.24 101.576 28.24C100.669 28.24 99.9893 28.08 99.5359 27.76C99.1093 27.4133 98.8959 26.8133 98.8959 25.96V17.56ZM111.456 17.56H116.376V27.92C116.189 28 115.883 28.0667 115.456 28.12C115.056 28.2 114.629 28.24 114.176 28.24C113.243 28.24 112.549 28.08 112.096 27.76C111.669 27.4133 111.456 26.8133 111.456 25.96V17.56ZM139.032 15.64V19.52H134.112V15.84C134.112 14.6667 133.779 13.8133 133.112 13.28C132.446 12.72 131.552 12.44 130.432 12.44C129.606 12.44 128.859 12.5467 128.192 12.76C127.552 12.9467 126.979 13.1733 126.472 13.44V19.52H121.552V13.12C121.552 12.48 121.686 11.96 121.952 11.56C122.219 11.1333 122.619 10.7467 123.152 10.4C123.952 9.86667 124.979 9.42667 126.232 9.08C127.512 8.70667 128.926 8.52 130.472 8.52C133.166 8.52 135.259 9.12 136.752 10.32C138.272 11.52 139.032 13.2933 139.032 15.64ZM121.552 17.56H126.472V27.92C126.259 28 125.952 28.0667 125.552 28.12C125.152 28.2 124.712 28.24 124.232 28.24C123.326 28.24 122.646 28.08 122.192 27.76C121.766 27.4133 121.552 26.8133 121.552 25.96V17.56ZM134.112 17.56H139.032V27.92C138.846 28 138.539 28.0667 138.112 28.12C137.712 28.2 137.286 28.24 136.832 28.24C135.899 28.24 135.206 28.08 134.752 27.76C134.326 27.4133 134.112 26.8133 134.112 25.96V17.56ZM146.368 21.04L146.168 17.6L156.888 16C156.808 14.9867 156.422 14.1067 155.728 13.36C155.035 12.6133 154.022 12.24 152.688 12.24C151.328 12.24 150.195 12.72 149.288 13.68C148.382 14.6133 147.915 15.96 147.888 17.72L148.008 19.8C148.248 21.5067 148.902 22.76 149.968 23.56C151.062 24.36 152.435 24.76 154.088 24.76C155.208 24.76 156.248 24.6 157.208 24.28C158.168 23.9333 158.928 23.56 159.488 23.16C159.862 23.4 160.155 23.7067 160.368 24.08C160.608 24.4267 160.728 24.8133 160.728 25.24C160.728 25.9333 160.422 26.5333 159.808 27.04C159.195 27.52 158.368 27.8933 157.328 28.16C156.288 28.4267 155.102 28.56 153.768 28.56C151.715 28.56 149.888 28.1867 148.288 27.44C146.715 26.6667 145.475 25.52 144.568 24C143.688 22.48 143.248 20.5867 143.248 18.32C143.248 16.6933 143.502 15.2667 144.008 14.04C144.515 12.8133 145.195 11.8 146.048 11C146.928 10.1733 147.942 9.56 149.088 9.16C150.235 8.73333 151.435 8.52 152.688 8.52C154.448 8.52 155.982 8.88 157.288 9.6C158.622 10.2933 159.662 11.2667 160.408 12.52C161.182 13.7733 161.568 15.2133 161.568 16.84C161.568 17.5867 161.368 18.1467 160.968 18.52C160.595 18.8667 160.062 19.08 159.368 19.16L146.368 21.04ZM170.457 13.6V19.08H165.537V13.2C165.537 12.5333 165.697 11.9733 166.017 11.52C166.337 11.04 166.79 10.6 167.377 10.2C168.177 9.72 169.19 9.32 170.417 9C171.643 8.68 172.963 8.52 174.377 8.52C176.883 8.52 178.137 9.29333 178.137 10.84C178.137 11.2133 178.083 11.56 177.977 11.88C177.87 12.1733 177.737 12.44 177.577 12.68C177.31 12.6267 176.977 12.5867 176.577 12.56C176.177 12.5067 175.75 12.48 175.297 12.48C174.337 12.48 173.43 12.5867 172.577 12.8C171.75 12.9867 171.043 13.2533 170.457 13.6ZM165.537 17.44L170.457 17.68V27.92C170.243 28 169.937 28.0667 169.537 28.12C169.137 28.2 168.697 28.24 168.217 28.24C167.31 28.24 166.63 28.08 166.177 27.76C165.75 27.4133 165.537 26.8133 165.537 25.96V17.44Z" fill="black"/>
</svg>
